<svg width="314" height="17" viewBox="0 0 314 17" fill="none" xmlns="http://www.w3.org/2000/svg">
<path fill-rule="evenodd" clip-rule="evenodd" d="M8.41467 0.0280304C3.7815 0.0280304 0.0253906 3.82197 0.0253906 8.50192C0.0253906 13.1821 3.7815 16.9757 8.41467 16.9757C13.0483 16.9757 16.8041 13.1821 16.8041 8.50192C16.8041 3.82227 13.0483 0.0284352 8.41457 0.0284352L8.41467 0.0280304ZM12.2619 12.2498C12.1117 12.4987 11.7891 12.5777 11.5427 12.4249C9.57294 11.2096 7.09331 10.9343 4.1731 11.6083C3.89169 11.673 3.61119 11.4949 3.54708 11.2106C3.48266 10.9262 3.65828 10.6429 3.94038 10.5781C7.13609 9.84067 9.87728 10.1582 12.0886 11.5233C12.3351 11.6761 12.4132 12.0009 12.2619 12.2498ZM12.3892 10.1602C12.6967 10.3515 13.0994 10.2533 13.2888 9.94247V9.94257C13.4781 9.63232 13.3809 9.22554 13.0734 9.03429C10.4838 7.42688 6.6961 6.97455 3.64936 7.90834C3.30405 8.01459 3.109 8.38292 3.21318 8.73233C3.31817 9.08114 3.68352 9.27805 4.02944 9.17251C6.6967 8.35469 10.1341 8.76016 12.3892 10.1602ZM13.3769 7.5398C10.6731 5.91762 6.21214 5.76847 3.63063 6.55988C3.21609 6.68687 2.77771 6.45049 2.65208 6.03176C2.52646 5.61283 2.76027 5.17033 3.17512 5.04303C6.13851 4.13434 11.0648 4.30991 14.1778 6.17657C14.5514 6.4001 14.6736 6.88652 14.4523 7.26264C14.2319 7.63927 13.749 7.76344 13.3773 7.5398H13.3769ZM21.1438 6.74232C21.1438 7.25688 21.4013 7.50176 22.8498 7.85066L22.8529 7.85198C24.617 8.28548 25.3373 8.95839 25.3343 10.1734C25.3343 11.6133 24.2453 12.5433 22.5603 12.5433C21.3682 12.5433 20.2642 12.1162 19.3666 11.3067C19.3286 11.2723 19.3246 11.2136 19.3576 11.1731L20.151 10.2199C20.1671 10.2007 20.1901 10.1886 20.2161 10.1865C20.2402 10.1855 20.2662 10.1926 20.2853 10.2098C21.0566 10.8837 21.7469 11.1721 22.5924 11.1721C23.3537 11.1721 23.8266 10.8392 23.8266 10.3039C23.8266 9.82104 23.5922 9.55086 22.2067 9.22837C20.5778 8.83079 19.6351 8.31573 19.6351 6.86112C19.6351 5.50466 20.7281 4.55661 22.2919 4.55661C23.3558 4.55661 24.2654 4.87505 25.0738 5.53006C25.1129 5.56173 25.1209 5.61891 25.0919 5.66039L24.3846 6.66744C24.3696 6.68859 24.3475 6.70266 24.3215 6.7065C24.2964 6.71055 24.2704 6.70438 24.2503 6.68889C23.5711 6.17748 22.924 5.92905 22.2708 5.92905C21.5966 5.92905 21.1438 6.2562 21.1438 6.74232ZM29.1471 6.40769C28.4168 6.40769 27.8177 6.6983 27.3228 7.29381V6.62352C27.3228 6.5706 27.2808 6.52749 27.2287 6.52749H25.9314C25.8793 6.52749 25.8372 6.5706 25.8372 6.62352V14.0712C25.8372 14.1239 25.8793 14.1674 25.9314 14.1674H27.2287C27.2808 14.1674 27.3228 14.1239 27.3228 14.0712V11.7206C27.8177 12.2802 28.4168 12.5544 29.1471 12.5544C30.5045 12.5544 31.879 11.499 31.879 9.48135C31.881 7.4633 30.5065 6.40758 29.1481 6.40758L29.1471 6.40769ZM28.8466 11.2258C29.7442 11.2258 30.3703 10.5083 30.3703 9.48135V9.48125C30.3703 8.47035 29.7291 7.73692 28.8466 7.73702C27.96 7.73702 27.2908 8.48664 27.2908 9.48135C27.2908 10.4759 27.96 11.2258 28.8466 11.2258ZM35.4003 6.40769C33.6521 6.40769 32.2827 7.76728 32.2827 9.5033C32.2827 11.2207 33.6431 12.5655 35.3792 12.5655C37.1334 12.5655 38.5068 11.2106 38.5068 9.48135C38.5068 7.75797 37.1424 6.40789 35.4003 6.40789V6.40769ZM33.7693 9.48084C33.7693 10.481 34.4706 11.2359 35.4003 11.2359C36.3389 11.2359 37.0202 10.5073 37.0202 9.5028C37.0202 8.50162 36.3149 7.74704 35.3792 7.74704C34.4466 7.74704 33.7693 8.47612 33.7693 9.48084ZM42.2395 6.52749H40.8119V5.05355C40.8119 5.00073 40.7698 4.95763 40.7178 4.95763H39.4204C39.3683 4.95763 39.3253 5.00073 39.3253 5.05355V6.52749H38.7022C38.6501 6.52749 38.608 6.5706 38.608 6.62352V7.74947C38.608 7.80229 38.6501 7.8455 38.7022 7.8455H39.3253V10.7593C39.3253 11.9361 39.9053 12.5331 41.0503 12.5331C41.5152 12.5331 41.9009 12.436 42.2645 12.2276C42.2946 12.2114 42.3126 12.179 42.3126 12.1446V11.072C42.3126 11.0396 42.2956 11.0082 42.2675 10.991C42.2395 10.9728 42.2044 10.9718 42.1754 10.987C41.9259 11.1134 41.6845 11.1721 41.414 11.1721C40.9983 11.1721 40.8119 10.9809 40.8119 10.5539V7.84601H42.2395C42.2916 7.84601 42.3336 7.8029 42.3336 7.74998V6.62413C42.3356 6.57121 42.2936 6.5281 42.2405 6.5281L42.2395 6.52749ZM47.2124 6.35223V6.53326V6.53357H49.4283C49.4674 6.53357 49.5024 6.55816 49.5165 6.59529L51.0312 10.5883L52.4146 6.59792C52.4277 6.55957 52.4637 6.53357 52.5048 6.53357H53.8552C53.8863 6.53357 53.9153 6.54925 53.9324 6.57526C53.9504 6.60146 53.9544 6.63486 53.9424 6.66441L51.6924 12.5372C51.2265 13.7495 50.6966 14.2008 49.7389 14.2008C49.227 14.2008 48.8132 14.0935 48.3544 13.8426C48.3103 13.8183 48.2923 13.7646 48.3133 13.7181L48.7531 12.7436C48.7631 12.7193 48.7842 12.7011 48.8092 12.692C48.8332 12.6849 48.8613 12.687 48.8843 12.6991C49.1298 12.8357 49.3712 12.9045 49.5996 12.9045C49.8821 12.9045 50.0895 12.8104 50.2999 12.3389L48.4446 7.8458H47.2334V12.3389C47.2334 12.3925 47.1913 12.435 47.1382 12.435H45.8419C45.7898 12.435 45.7467 12.3925 45.7467 12.3389V7.8455H45.1236C45.0715 7.8455 45.0285 7.80229 45.0285 7.74947V6.61776C45.0285 6.56494 45.0715 6.52183 45.1236 6.52183H45.7467V6.24457C45.7467 4.95611 46.3809 4.27469 47.578 4.27469C48.0709 4.27469 48.3995 4.35392 48.6559 4.43113C48.697 4.44358 48.7231 4.48092 48.7231 4.52311V5.6271C48.7231 5.65786 48.709 5.68691 48.684 5.70502C48.6599 5.72313 48.6289 5.72789 48.5988 5.71838C48.3554 5.63641 48.138 5.58217 47.8675 5.58217C47.4147 5.58217 47.2124 5.81967 47.2124 6.35223ZM44.3292 6.52749H43.0319C42.9798 6.52749 42.9367 6.5706 42.9367 6.62352V12.3389C42.9367 12.3925 42.9798 12.435 43.0319 12.435H44.3292C44.3813 12.435 44.4244 12.3925 44.4244 12.3389V6.62393C44.4244 6.57101 44.3823 6.5279 44.3292 6.5279V6.52749ZM42.7574 4.86413C42.7574 4.34512 43.1741 3.92498 43.6881 3.92498C44.201 3.92498 44.6177 4.34522 44.6177 4.86413C44.6177 5.38344 44.202 5.80408 43.6881 5.80408C43.1741 5.80408 42.7574 5.38344 42.7574 4.86413ZM55.0503 8.36522C54.5374 8.36522 54.1377 7.94882 54.1377 7.44317C54.1377 6.93752 54.5424 6.51636 55.0554 6.51636C55.5683 6.51636 55.968 6.93266 55.968 7.43791C55.968 7.94355 55.5633 8.36522 55.0503 8.36522ZM54.2339 7.44317C54.2339 6.98346 54.5875 6.60804 55.0554 6.60804C55.5202 6.60804 55.8718 6.9784 55.8718 7.43791C55.8718 7.89792 55.5182 8.27303 55.0504 8.27303C54.5855 8.27303 54.2339 7.90267 54.2339 7.44317ZM55.2577 7.53272L55.5162 7.89782H55.2978L55.0654 7.56288H54.866V7.89782H54.6837V6.93003H55.1105C55.3339 6.93003 55.4801 7.04508 55.4801 7.23876C55.4811 7.39743 55.39 7.49437 55.2587 7.53272H55.2577ZM54.866 7.09608H55.1034C55.2217 7.09608 55.2928 7.14941 55.2928 7.24898C55.2928 7.3436 55.2217 7.40219 55.1034 7.40219H54.866V7.09608Z" fill="#5A668A"/>
<g clip-path="url(#clip0_0_748)">
<path d="M86.5489 9.58956C86.6535 9.58913 86.7548 9.59322 86.8525 9.6017L86.8625 9.59509C86.988 9.61198 87.2377 9.64503 87.4685 9.71993C87.7008 9.79336 87.9113 9.90865 88.0753 10.0269C88.235 10.1444 88.3512 10.2663 88.4237 10.4146C88.4963 10.5629 88.5326 10.7392 88.5544 11.0278C88.5689 11.3171 88.5689 11.718 88.5036 12.467C88.4383 13.2138 88.3076 14.3087 88.206 15.01C88.1044 15.7149 88.0318 16.0234 87.9374 16.251C87.8431 16.486 87.7197 16.6402 87.5818 16.7503C87.4439 16.8605 87.2842 16.9266 87.1318 16.9633C86.9793 17 86.8414 17 86.7108 17C86.5801 17 86.4567 17 86.2898 16.9633C86.1228 16.9266 85.9051 16.8605 85.7454 16.7283C85.6752 16.6727 85.6152 16.6067 85.5628 16.5303C85.2831 16.2406 85.1599 15.6959 84.9746 14.3917C84.6677 12.2326 84.6008 10.8961 84.7784 10.4728C85.0142 9.91167 85.6539 9.59323 86.5489 9.58956ZM86.5568 0C88.6558 0 90.5535 0.821236 91.9984 2.35659C93.0982 3.51521 93.7164 4.7416 94.0327 6.35711C94.1405 6.89488 94.1405 8.36101 94.0399 8.96583C93.7092 10.8779 92.6597 12.6195 91.1286 13.7898C90.5823 14.208 89.2452 14.9382 89.0296 14.9382C88.9505 14.9382 88.9433 14.8551 88.9793 14.5192C89.044 13.98 89.1087 13.8677 89.4106 13.7395C89.8922 13.5355 90.7117 12.9438 91.2148 12.4322C92.0846 11.5578 92.7244 10.4137 93.0191 9.2114C93.206 8.46084 93.1844 6.79214 92.976 6.01973C92.3218 3.56403 90.345 1.65486 87.9226 1.14478C87.2181 0.999037 85.9386 0.999037 85.2269 1.14478C82.7757 1.65486 80.7486 3.65876 80.1304 6.18004C79.9651 6.86501 79.9651 8.53371 80.1304 9.21868C80.5401 10.8874 81.604 12.4176 82.9986 13.3285C83.2717 13.5107 83.6024 13.7001 83.739 13.7584C84.0409 13.8896 84.1056 13.9989 84.1631 14.5381C84.199 14.866 84.1918 14.9608 84.1128 14.9608C84.0624 14.9608 83.6958 14.8005 83.3077 14.611L83.2717 14.584C81.0505 13.4764 79.6272 11.6022 79.1097 9.10865C78.9803 8.46522 78.9587 6.92986 79.0809 6.33962C79.4044 4.75472 80.0226 3.51521 81.0505 2.41926C82.5313 0.836538 84.4362 0 86.5568 0ZM103.507 10.1525C104.598 10.1525 105.267 10.8857 105.267 12.093C105.267 13.3038 104.601 14.0336 103.507 14.0336C102.409 14.0336 101.747 13.3038 101.747 12.093C101.747 10.8891 102.42 10.1525 103.507 10.1525ZM119.757 10.1525C120.627 10.1525 121.172 10.5447 121.233 11.2234H120.453C120.393 10.9607 120.148 10.7936 119.76 10.7936C119.382 10.7936 119.098 10.9778 119.098 11.2472C119.098 11.4587 119.272 11.5883 119.64 11.6735L120.286 11.8236C120.985 11.9839 121.31 12.2908 121.31 12.8399C121.31 13.5561 120.664 14.0336 119.75 14.0336C118.837 14.0336 118.261 13.6312 118.197 12.9525H119.017C119.098 13.2287 119.355 13.3924 119.77 13.3924C120.189 13.3924 120.48 13.2049 120.48 12.9286C120.48 12.7172 120.322 12.5841 119.974 12.5057L119.325 12.3522C118.622 12.1885 118.291 11.8577 118.291 11.295C118.291 10.6197 118.894 10.1525 119.757 10.1525ZM112.04 10.1525C112.981 10.1525 113.549 10.6981 113.636 11.4826H112.847C112.77 11.121 112.495 10.8618 112.04 10.8618C111.471 10.8618 111.133 11.3086 111.133 12.0828C111.133 12.8672 111.475 13.3242 112.04 13.3242C112.472 13.3242 112.76 13.1162 112.847 12.7274H113.636C113.546 13.5084 112.971 14.0336 112.044 14.0336C110.943 14.0336 110.293 13.3106 110.293 12.0828C110.293 10.8721 110.939 10.1525 112.04 10.1525ZM115.909 10.1525C116.849 10.1525 117.378 10.6197 117.378 11.4109V13.9586H116.578V13.447H116.521C116.317 13.8085 115.915 14.02 115.437 14.02C114.731 14.02 114.225 13.5834 114.225 12.9013C114.225 12.226 114.724 11.8372 115.614 11.7827L116.558 11.7247V11.4109C116.558 11.046 116.317 10.8414 115.868 10.8414C115.487 10.8414 115.226 10.9778 115.149 11.2302H114.366C114.433 10.5719 115.039 10.1525 115.909 10.1525ZM109.427 8.78484V13.9586H108.624V13.3686H108.567C108.359 13.7778 107.938 14.02 107.429 14.02C106.502 14.02 105.923 13.2765 105.923 12.0896C105.923 10.9096 106.505 10.1661 107.429 10.1661C107.931 10.1661 108.346 10.4117 108.54 10.8209H108.597V8.78484H109.427ZM123.217 9.31347V10.2514H124V10.9266H123.217V12.7581C123.217 13.1264 123.371 13.2901 123.719 13.2901C123.836 13.2901 123.9 13.2833 124 13.2731V13.9347C123.88 13.9586 123.726 13.9756 123.565 13.9756C122.725 13.9756 122.39 13.6857 122.39 12.9627V10.9266H121.812V10.2514H122.39V9.31347H123.217ZM99.5417 9.03722C100.505 9.03722 101.165 9.70909 101.165 10.7015C101.165 11.677 100.482 12.3454 99.5049 12.3454H98.4575V13.9586H97.5941V9.03722H99.5417ZM116.558 12.2943L115.731 12.3488C115.266 12.3795 115.049 12.55 115.049 12.8536C115.049 13.1673 115.313 13.3549 115.681 13.3549C116.183 13.3549 116.558 13.0241 116.558 12.591V12.2943ZM103.507 10.8618C102.928 10.8618 102.597 11.3154 102.597 12.093C102.597 12.874 102.928 13.3242 103.507 13.3242C104.086 13.3242 104.414 12.874 104.414 12.093C104.414 11.3154 104.083 10.8618 103.507 10.8618ZM107.687 10.8857C107.121 10.8857 106.773 11.3427 106.773 12.093C106.773 12.8468 107.118 13.3004 107.687 13.3004C108.259 13.3004 108.607 12.8433 108.607 12.093C108.607 11.3495 108.256 10.8857 107.687 10.8857ZM87.671 2.65608C90.1725 3.22082 91.948 5.76031 91.603 8.2794C91.4664 9.29447 91.1214 10.1281 90.5104 10.9027C90.2085 11.294 89.4753 11.9506 89.3459 11.9506C89.3263 11.9506 89.3067 11.7458 89.3033 11.4819L89.3027 10.8502L89.6765 10.3984C91.0854 8.68747 90.9848 6.29736 89.4465 4.72921C88.8499 4.11857 88.1598 3.76005 87.2684 3.59464C86.6934 3.48679 86.5712 3.48679 85.9673 3.58735C85.0508 3.73892 84.3406 4.09889 83.7102 4.7314C82.1647 6.28351 82.0641 8.68601 83.473 10.3984L83.8439 10.8502V11.404C83.8439 11.7101 83.8202 11.9578 83.7907 11.9578C83.762 11.9578 83.5535 11.8121 83.3307 11.6299L83.3005 11.6197C82.5529 11.0149 81.8916 9.94228 81.6184 8.89004C81.4531 8.25462 81.4531 7.04645 81.6256 6.41249C82.0784 4.70152 83.322 3.3753 85.0472 2.75227C85.6367 2.54095 86.945 2.49358 87.671 2.65608ZM99.3141 9.77389H98.4575V11.6156H99.3108C99.9265 11.6156 100.288 11.2882 100.288 10.7015C100.288 10.0979 99.9366 9.77389 99.3141 9.77389ZM87.3188 5.44479C87.9893 5.71553 88.4594 6.37417 88.4594 7.14417C88.4594 8.15218 87.6538 8.96933 86.66 8.96933C86.009 8.96933 85.4387 8.61856 85.1228 8.09317L85.0919 8.05078C84.9051 7.76892 84.8066 7.4246 84.8028 7.03188C84.8028 6.36513 85.1694 5.78363 85.802 5.44333C86.2046 5.22909 86.9162 5.22909 87.3188 5.44479ZM108.711 3.18137C109.638 3.18137 110.22 3.91122 110.22 5.10831C110.22 6.29858 109.644 7.03525 108.721 7.03525C108.195 7.03525 107.79 6.80333 107.603 6.40772H107.546V8.21529H106.716V3.24276H107.516V3.86007H107.573C107.784 3.43716 108.209 3.18137 108.711 3.18137ZM104.374 3.18137C105.301 3.18137 105.883 3.91122 105.883 5.10831C105.883 6.29858 105.307 7.03525 104.384 7.03525C103.858 7.03525 103.454 6.80333 103.266 6.40772H103.209V8.21529H102.379V3.24276H103.179V3.86007H103.236C103.447 3.43716 103.872 3.18137 104.374 3.18137ZM114.503 3.16773C115.547 3.16773 116.173 3.87371 116.173 5.05033V5.32317H113.616V5.36751C113.636 5.98822 113.988 6.37702 114.533 6.37702C114.945 6.37702 115.229 6.22355 115.35 5.9473H116.136C115.986 6.62599 115.373 7.04889 114.51 7.04889C113.432 7.04889 112.783 6.32245 112.783 5.12195C112.783 3.92146 113.442 3.16773 114.503 3.16773ZM111.916 1.80012V6.97386H111.087V1.80012H111.916ZM99.9198 2.0525L101.636 6.97386H100.71L100.301 5.71538H98.5244L98.1095 6.97386H97.2361L98.9494 2.0525H99.9198ZM104.116 3.90099C103.551 3.90099 103.196 4.36482 103.193 5.10831C103.196 5.85521 103.547 6.31563 104.113 6.31563C104.688 6.31563 105.03 5.86203 105.03 5.10831C105.03 4.35459 104.685 3.90099 104.116 3.90099ZM108.453 3.90099C107.887 3.90099 107.533 4.36482 107.529 5.10831C107.533 5.85521 107.884 6.31563 108.45 6.31563C109.025 6.31563 109.367 5.86203 109.367 5.10831C109.367 4.35459 109.022 3.90099 108.453 3.90099ZM99.4446 2.99039H99.3878L98.7252 5.01964H100.101L99.4446 2.99039ZM114.5 3.8396C114.005 3.8396 113.657 4.20112 113.62 4.7468H115.343C115.326 4.1943 114.998 3.8396 114.5 3.8396Z" fill="#5A668A"/>
</g>
<path d="M153.508 10.2783H154.796V8.66072V8.01416V6.39655H153.508V8.01416V8.66072V10.2783Z" fill="#5A668A"/>
<ellipse cx="149.644" cy="7.97352" rx="0.644001" ry="0.66718" fill="#5A668A"/>
<ellipse cx="149.644" cy="8.70135" rx="0.644001" ry="0.66718" fill="#5A668A"/>
<rect x="149" y="7.97353" width="1.288" height="0.727833" fill="#5A668A"/>
<ellipse cx="158.66" cy="8.70135" rx="0.644001" ry="0.66718" fill="#5A668A"/>
<ellipse cx="158.66" cy="7.97352" rx="0.644001" ry="0.66718" fill="#5A668A"/>
<rect x="159.304" y="8.70135" width="1.288" height="0.727833" transform="rotate(180 159.304 8.70135)" fill="#5A668A"/>
<ellipse cx="151.869" cy="10.157" rx="0.644001" ry="0.66718" fill="#5A668A"/>
<ellipse cx="151.869" cy="10.8849" rx="0.644001" ry="0.66718" fill="#5A668A"/>
<rect x="151.225" y="10.157" width="1.288" height="0.727833" fill="#5A668A"/>
<ellipse cx="151.869" cy="5.79003" rx="0.644001" ry="0.66718" fill="#5A668A"/>
<ellipse cx="151.869" cy="8.15548" rx="0.644001" ry="0.66718" fill="#5A668A"/>
<rect x="151.225" y="5.79002" width="1.288" height="2.38062" fill="#5A668A"/>
<ellipse cx="156.435" cy="6.51786" rx="0.644001" ry="0.66718" fill="#5A668A"/>
<ellipse cx="156.435" cy="5.79003" rx="0.644001" ry="0.66718" fill="#5A668A"/>
<rect x="157.079" y="6.51786" width="1.288" height="0.727833" transform="rotate(180 157.079 6.51786)" fill="#5A668A"/>
<ellipse cx="154.152" cy="4.39501" rx="0.644001" ry="0.66718" fill="#5A668A"/>
<ellipse cx="154.152" cy="3.66718" rx="0.644001" ry="0.66718" fill="#5A668A"/>
<rect x="154.796" y="4.39501" width="1.288" height="0.727833" transform="rotate(180 154.796 4.39501)" fill="#5A668A"/>
<ellipse cx="154.152" cy="13.0077" rx="0.644001" ry="0.66718" fill="#5A668A"/>
<ellipse cx="154.152" cy="12.2799" rx="0.644001" ry="0.66718" fill="#5A668A"/>
<rect x="154.796" y="13.0077" width="1.288" height="0.727833" transform="rotate(180 154.796 13.0077)" fill="#5A668A"/>
<ellipse cx="156.435" cy="10.8849" rx="0.644001" ry="0.66718" fill="#5A668A"/>
<ellipse cx="156.435" cy="8.5194" rx="0.644001" ry="0.66718" fill="#5A668A"/>
<rect x="157.079" y="10.8848" width="1.288" height="2.36546" transform="rotate(180 157.079 10.8848)" fill="#5A668A"/>
<ellipse cx="154.152" cy="6.39655" rx="0.644001" ry="0.66718" fill="#5A668A"/>
<ellipse cx="154.152" cy="10.2783" rx="0.644001" ry="0.66718" fill="#5A668A"/>
<path fill-rule="evenodd" clip-rule="evenodd" d="M189.647 10.8236H190.435V8.38483H191.736C192.256 8.38483 192.705 8.21524 193.085 7.87605C193.465 7.53687 193.654 7.10939 193.654 6.5936C193.654 6.07782 193.465 5.65034 193.085 5.31115C192.705 4.97197 192.256 4.80238 191.736 4.80238H189.647V10.8236ZM191.754 7.6448H190.435V5.54242H191.754C192.085 5.54242 192.35 5.65174 192.55 5.87038C192.75 6.08903 192.85 6.3301 192.85 6.5936C192.85 6.8571 192.75 7.09817 192.55 7.31682C192.35 7.53547 192.085 7.6448 191.754 7.6448ZM194.307 7.19909C194.713 6.77861 195.229 6.56838 195.857 6.56838C196.485 6.56838 197.002 6.77721 197.407 7.19489C197.812 7.61256 198.015 8.13535 198.015 8.76326C198.015 9.39117 197.812 9.91396 197.407 10.3316C197.002 10.7493 196.485 10.9581 195.857 10.9581C195.229 10.9581 194.713 10.7493 194.307 10.3316C193.902 9.91396 193.7 9.39117 193.7 8.76326C193.7 8.13535 193.902 7.61396 194.307 7.19909ZM195.857 10.2517C195.486 10.2517 195.164 10.1172 194.89 9.84809C194.621 9.57337 194.487 9.21177 194.487 8.76326C194.487 8.31475 194.623 7.95455 194.894 7.68264C195.165 7.41073 195.486 7.27477 195.857 7.27477C196.228 7.27477 196.549 7.41073 196.821 7.68264C197.092 7.95455 197.227 8.31475 197.227 8.76326C197.227 9.21177 197.092 9.57197 196.821 9.84388C196.549 10.1158 196.228 10.2517 195.857 10.2517ZM200.389 10.9581C199.847 10.9581 199.379 10.7479 198.985 10.3274C198.591 9.90695 198.394 9.38557 198.394 8.76326C198.394 8.14095 198.591 7.61957 198.985 7.19909C199.379 6.77861 199.847 6.56838 200.389 6.56838C200.709 6.56838 200.996 6.63565 201.25 6.77021C201.504 6.90476 201.693 7.07294 201.819 7.27477H201.853L201.819 6.70293V4.80238H202.607V10.8236H201.853V10.2517H201.819C201.693 10.4536 201.504 10.6218 201.25 10.7563C200.996 10.8909 200.709 10.9581 200.389 10.9581ZM201.464 9.84809C201.204 10.1172 200.889 10.2517 200.518 10.2517C200.152 10.2517 199.838 10.1158 199.576 9.84388C199.313 9.57197 199.182 9.21177 199.182 8.76326C199.182 8.31475 199.313 7.95455 199.576 7.68264C199.838 7.41073 200.152 7.27477 200.518 7.27477C200.889 7.27477 201.204 7.40933 201.464 7.67843C201.723 7.94754 201.853 8.30914 201.853 8.76326C201.853 9.21738 201.723 9.57898 201.464 9.84809ZM205.341 10.9581C204.713 10.9581 204.196 10.7493 203.791 10.3316C203.385 9.91396 203.183 9.39117 203.183 8.76326C203.183 8.13535 203.385 7.61256 203.791 7.19489C204.196 6.77721 204.713 6.56838 205.341 6.56838C205.809 6.56838 206.197 6.6805 206.505 6.90476C206.813 7.12901 207.039 7.41213 207.181 7.75412L206.462 8.04845C206.245 7.53266 205.854 7.27477 205.289 7.27477C204.941 7.27477 204.634 7.41493 204.369 7.69525C204.103 7.97557 203.971 8.33157 203.971 8.76326C203.971 9.19495 204.103 9.55095 204.369 9.83127C204.634 10.1116 204.941 10.2517 205.289 10.2517C205.877 10.2517 206.282 9.99385 206.505 9.47807L207.207 9.7724C207.064 10.1088 206.835 10.3905 206.518 10.6176C206.201 10.8446 205.809 10.9581 205.341 10.9581ZM207.959 10.5797C208.258 10.832 208.631 10.9581 209.076 10.9581H209.076C209.681 10.9581 210.141 10.7227 210.455 10.2517H210.489V10.8236H211.242V8.33437C211.242 7.77374 211.065 7.33925 210.711 7.0309C210.358 6.72255 209.912 6.56838 209.376 6.56838C208.908 6.56838 208.531 6.67349 208.246 6.88373C207.96 7.09397 207.769 7.32243 207.672 7.56911L208.391 7.87185C208.46 7.68684 208.587 7.54108 208.772 7.43456C208.958 7.32803 209.165 7.27477 209.393 7.27477C209.701 7.27477 209.961 7.36588 210.172 7.54808C210.383 7.73029 210.489 7.97276 210.489 8.27551V8.39324C210.192 8.22505 209.812 8.14095 209.35 8.14095C208.831 8.14095 208.394 8.2685 208.04 8.52359C207.686 8.77868 207.509 9.13047 207.509 9.57898C207.509 9.99385 207.659 10.3274 207.959 10.5797ZM209.205 10.2517C209.53 10.2517 209.825 10.1326 210.091 9.89434C210.356 9.65607 210.489 9.37435 210.489 9.04918C210.266 8.86978 209.932 8.78008 209.487 8.78008C209.105 8.78008 208.816 8.86137 208.622 9.02395C208.428 9.18654 208.331 9.37715 208.331 9.5958C208.331 9.79763 208.42 9.95741 208.597 10.0751C208.774 10.1929 208.976 10.2517 209.205 10.2517ZM212.388 10.6218C212.693 10.846 213.08 10.9581 213.548 10.9581C214.033 10.9581 214.43 10.8348 214.738 10.5881C215.046 10.3414 215.201 10.0331 215.201 9.66307C215.201 9.38836 215.106 9.14169 214.918 8.92304C214.73 8.70439 214.438 8.55022 214.045 8.46052L213.214 8.2671C212.843 8.183 212.658 8.02322 212.658 7.78776C212.658 7.62517 212.737 7.49622 212.897 7.40092C213.057 7.30561 213.254 7.25795 213.488 7.25795C213.973 7.25795 214.293 7.44016 214.447 7.80458L215.132 7.52706C215.006 7.21871 214.798 6.98184 214.507 6.81646C214.216 6.65107 213.885 6.56838 213.514 6.56838C213.063 6.56838 212.673 6.6819 212.345 6.90896C212.017 7.13602 211.853 7.43175 211.853 7.79616C211.853 8.11573 211.973 8.36941 212.212 8.55723C212.452 8.74504 212.706 8.87258 212.974 8.93986L213.822 9.14169C214.204 9.23699 214.396 9.4192 214.396 9.6883C214.396 9.8621 214.317 10.0023 214.16 10.1088C214.003 10.2153 213.802 10.2686 213.557 10.2686C213.02 10.2686 212.64 10.0107 212.418 9.49489L211.716 9.78081C211.858 10.1172 212.082 10.3975 212.388 10.6218ZM217.558 10.8909C217.118 10.8909 216.783 10.7759 216.551 10.5461C216.32 10.3162 216.205 9.99105 216.205 9.57057V7.40933H215.468V6.70293H216.205V5.4415H216.992V6.70293H218.02V7.40933H216.992V9.51171C216.992 9.96022 217.181 10.1845 217.558 10.1845C217.7 10.1845 217.82 10.162 217.917 10.1172L218.191 10.7815C218.02 10.8544 217.809 10.8909 217.558 10.8909ZM219.157 10.6218C219.462 10.846 219.849 10.9581 220.317 10.9581C220.802 10.9581 221.199 10.8348 221.507 10.5881C221.815 10.3414 221.97 10.0331 221.97 9.66307C221.97 9.38836 221.875 9.14169 221.687 8.92304C221.499 8.70439 221.208 8.55022 220.814 8.46052L219.983 8.2671C219.612 8.183 219.427 8.02322 219.427 7.78776C219.427 7.62517 219.506 7.49622 219.666 7.40092C219.826 7.30561 220.023 7.25795 220.257 7.25795C220.742 7.25795 221.062 7.44016 221.216 7.80458L221.901 7.52706C221.775 7.21871 221.567 6.98184 221.276 6.81646C220.985 6.65107 220.654 6.56838 220.283 6.56838C219.832 6.56838 219.442 6.6819 219.114 6.90896C218.786 7.13602 218.622 7.43175 218.622 7.79616C218.622 8.11573 218.742 8.36941 218.981 8.55723C219.221 8.74504 219.475 8.87258 219.743 8.93986L220.591 9.14169C220.973 9.23699 221.165 9.4192 221.165 9.6883C221.165 9.8621 221.086 10.0023 220.929 10.1088C220.772 10.2153 220.571 10.2686 220.326 10.2686C219.789 10.2686 219.409 10.0107 219.187 9.49489L218.485 9.78081C218.627 10.1172 218.851 10.3975 219.157 10.6218Z" fill="#5A668A"/>
<path fill-rule="evenodd" clip-rule="evenodd" d="M165.387 4.42588C163.649 4.42588 162.193 5.88471 162.193 7.68496C162.193 9.47902 163.649 10.9378 165.387 10.9378C166.321 10.9378 167.029 10.6212 167.586 10.0253C168.155 9.44177 168.329 8.61613 168.329 7.94569C168.329 7.73463 168.311 7.54839 168.281 7.38699H165.387V8.27471H167.442C167.382 8.77133 167.22 9.13759 166.975 9.39211C166.675 9.7025 166.208 10.0439 165.387 10.0439C164.122 10.0439 163.134 8.9886 163.134 7.67876C163.134 6.36892 164.122 5.31359 165.387 5.31359C166.07 5.31359 166.567 5.59294 166.933 5.95299L167.544 5.32601C167.029 4.81697 166.345 4.42588 165.387 4.42588ZM172.667 8.88307C172.667 7.66634 171.756 6.78484 170.636 6.78484C169.515 6.78484 168.604 7.66634 168.604 8.88307C168.604 10.0936 169.515 10.9813 170.636 10.9813C171.756 10.9813 172.667 10.0936 172.667 8.88307ZM170.636 10.1495C171.247 10.1495 171.78 9.628 171.78 8.87686C171.78 8.11951 171.247 7.60426 170.636 7.60426C170.019 7.60426 169.491 8.11951 169.491 8.87686C169.491 9.628 170.025 10.1495 170.636 10.1495ZM177.101 8.88307C177.101 7.66634 176.19 6.78484 175.07 6.78484C173.949 6.78484 173.039 7.66634 173.039 8.88307C173.039 10.0936 173.949 10.9813 175.07 10.9813C176.19 10.9813 177.101 10.0936 177.101 8.88307ZM175.07 10.1495C175.681 10.1495 176.214 9.628 176.214 8.87686C176.214 8.11951 175.687 7.60426 175.07 7.60426C174.453 7.60426 173.925 8.11951 173.925 8.87686C173.925 9.628 174.459 10.1495 175.07 10.1495ZM181.362 6.85312H180.511V7.19455H180.481C180.283 6.94624 179.9 6.72276 179.414 6.72276C178.402 6.72276 177.473 7.64151 177.473 8.8272C177.473 10.0005 178.402 10.9192 179.414 10.9192C179.9 10.9192 180.283 10.6957 180.481 10.4412H180.511V10.7454C180.511 11.5462 180.097 11.9745 179.432 11.9745C178.887 11.9745 178.551 11.571 178.414 11.2296L177.641 11.5648C177.862 12.1235 178.455 12.8064 179.438 12.8064C180.481 12.8064 181.362 12.1732 181.362 10.6212V6.85312ZM179.492 10.0936C180.097 10.0936 180.577 9.56592 180.571 8.8272C180.571 8.08847 180.097 7.54839 179.492 7.54839C178.881 7.54839 178.366 8.08847 178.366 8.8272C178.366 9.55972 178.881 10.0936 179.492 10.0936ZM181.967 4.67419V10.8385H182.854V4.67419H181.967ZM185.292 10.1495C185.748 10.1495 186.059 9.91977 186.293 9.57213L186.982 10.0501C186.755 10.3916 186.221 10.9813 185.292 10.9813C184.142 10.9813 183.285 10.0563 183.285 8.88307C183.285 7.6353 184.154 6.78484 185.197 6.78484C186.245 6.78484 186.761 7.64772 186.928 8.11951L187.018 8.35541L184.31 9.51626C184.519 9.93219 184.837 10.1495 185.292 10.1495ZM184.166 8.81478C184.142 8.00777 184.771 7.59185 185.227 7.59185C185.58 7.59185 185.88 7.77188 185.976 8.03881L184.166 8.81478Z" fill="#5A668A"/>
<path fill-rule="evenodd" clip-rule="evenodd" d="M253.169 8.44892C253.169 12.5644 249.773 15.9008 245.584 15.9008C241.395 15.9008 238 12.5644 238 8.44892C238 4.33411 241.395 0.997749 245.584 0.997749C249.773 0.997749 253.169 4.33411 253.169 8.44892ZM245.655 12.0371C243.677 12.0371 242.073 10.4613 242.073 8.51798C242.073 6.57462 243.677 4.99956 245.655 4.99956C247.633 4.99956 249.236 6.57462 249.236 8.51798H247.934C247.934 7.28123 246.913 6.27886 245.655 6.27886C244.396 6.27886 243.375 7.28123 243.375 8.51798C243.375 9.75472 244.396 10.7571 245.655 10.7571V12.0371ZM245.655 2.65372C242.358 2.65372 239.686 5.27928 239.686 8.51798C239.686 11.7567 242.358 14.3829 245.655 14.3829V12.9167C243.182 12.9167 241.178 10.9475 241.178 8.51798C241.178 6.08913 243.182 4.11996 245.655 4.11996C248.128 4.11996 250.131 6.08913 250.131 8.51798H251.624C251.624 5.27928 248.951 2.65372 245.655 2.65372Z" fill="#5A668A"/>
<path fill-rule="evenodd" clip-rule="evenodd" d="M258.041 4.48477V12.5993H259.869V10.2695H260.33C262.1 10.2695 263.386 9.40037 263.386 7.30215C263.386 5.42367 262.3 4.48477 260.283 4.48477H258.041ZM261.569 7.35935C261.569 8.34498 261.132 8.80885 260.259 8.80885H259.858V5.96845H260.283C261.132 5.96845 261.569 6.3507 261.569 7.35935Z" fill="#5A668A"/>
<path fill-rule="evenodd" clip-rule="evenodd" d="M263.562 9.60893C263.562 11.6604 264.671 12.7158 266.064 12.7158C267.456 12.7158 268.577 11.6493 268.577 9.58522C268.577 7.53374 267.456 6.46719 266.075 6.46719C264.683 6.46719 263.562 7.53374 263.562 9.60893ZM265.191 9.58522C265.191 8.44962 265.521 7.89297 266.052 7.89297C266.594 7.89297 266.949 8.44962 266.949 9.59708C266.949 10.7334 266.606 11.3012 266.075 11.3012C265.533 11.3012 265.191 10.7334 265.191 9.58522Z" fill="#5A668A"/>
<path d="M271.585 12.6928C269.945 12.6928 268.977 11.5676 268.977 9.60894C268.977 7.69558 269.968 6.49022 271.679 6.49022C272.222 6.49022 272.635 6.59415 273.036 6.74552L272.776 8.20618C272.493 8.07853 272.163 7.9739 271.82 7.9739C271.03 7.9739 270.617 8.64633 270.617 9.58522C270.617 10.6057 271.03 11.2084 271.845 11.2084C272.151 11.2084 272.469 11.1156 272.812 10.988L273.071 12.3914C272.658 12.5651 272.116 12.6928 271.585 12.6928Z" fill="#5A668A"/>
<path d="M275.395 9.72473V12.6H273.684V4.24133H275.395V9.19111L276.788 6.59485H278.664L277 9.46943L278.711 12.6H276.811L275.395 9.72473Z" fill="#5A668A"/>
<path fill-rule="evenodd" clip-rule="evenodd" d="M280.917 6.46719C279.56 6.46719 278.485 7.55676 278.485 9.6201C278.485 11.9157 279.677 12.6928 281.176 12.6928C281.837 12.6928 282.533 12.5414 283.123 12.2519L282.816 11.0696C282.333 11.2893 281.802 11.4288 281.353 11.4288C280.598 11.4288 280.138 11.0229 280.079 10.1998H283.324V9.65497C283.324 7.5449 282.356 6.46719 280.917 6.46719ZM280.917 7.75416C281.435 7.75416 281.707 8.28709 281.743 9.19111H280.079C280.114 8.31011 280.385 7.75416 280.917 7.75416Z" fill="#5A668A"/>
<path d="M284.243 10.8024V7.97389H283.583V6.59415H284.243V5.01839H285.943V6.59415H287.24V7.97389H285.943V10.5597C285.943 11.0577 286.214 11.2663 286.674 11.2663C286.875 11.2663 287.052 11.2314 287.24 11.1854V12.5533C286.981 12.6342 286.615 12.6809 286.19 12.6809C284.892 12.6809 284.243 12.1592 284.243 10.8024Z" fill="#5A668A"/>
<path d="M292.986 12.6928C290.838 12.6928 289.492 11.3479 289.492 8.55355C289.492 5.86452 290.873 4.392 292.998 4.392C293.706 4.392 294.296 4.53081 294.756 4.7052L294.472 6.3514C294.107 6.20073 293.682 6.06122 293.175 6.06122C292.042 6.06122 291.369 6.94222 291.369 8.53053C291.369 10.1649 292.007 11.0229 293.21 11.0229C293.67 11.0229 294.107 10.9071 294.484 10.7445L294.779 12.3447C294.272 12.5533 293.647 12.6928 292.986 12.6928Z" fill="#5A668A"/>
<path fill-rule="evenodd" clip-rule="evenodd" d="M295.109 10.7794C295.109 12.0782 295.781 12.6809 296.737 12.6809C297.374 12.6809 297.811 12.4605 298.26 12.0782L298.472 12.6H299.959L299.829 11.5335V8.53053C299.829 7.15079 299.132 6.50208 297.587 6.50208C296.796 6.50208 296.076 6.68762 295.463 6.93107L295.781 8.20618C296.253 8.00877 296.784 7.86996 297.28 7.86996C297.917 7.86996 298.153 8.14828 298.153 8.65819V8.9944C297.87 8.93651 297.54 8.88977 297.209 8.88977C296.442 8.88977 295.934 9.06346 295.593 9.41153C295.274 9.71357 295.109 10.1998 295.109 10.7794ZM298.153 9.89842V11.3249C297.929 11.4519 297.681 11.5446 297.445 11.5446C296.973 11.5446 296.702 11.3012 296.702 10.6985C296.702 10.3972 296.773 10.1886 296.902 10.0491C297.044 9.92144 297.244 9.85238 297.599 9.85238C297.799 9.85238 297.988 9.86354 298.153 9.89842Z" fill="#5A668A"/>
<path d="M302.672 12.7039C301.845 12.7039 301.078 12.4954 300.417 12.1473L300.76 10.7913C301.409 11.1387 302.058 11.3479 302.648 11.3479C303.085 11.3479 303.321 11.1624 303.321 10.9071C303.321 10.6525 303.179 10.536 302.353 10.2116C301.208 9.75961 300.642 9.33062 300.642 8.32197C300.642 7.20869 301.421 6.49022 302.79 6.49022C303.485 6.49022 304.123 6.65275 304.701 6.93107L304.359 8.28709C303.828 8.02063 303.285 7.84625 302.79 7.84625C302.424 7.84625 302.223 7.99761 302.223 8.24106C302.223 8.47264 302.353 8.58843 303.167 8.91349C304.454 9.41154 304.902 9.8754 304.902 10.8262C304.902 12.0782 304.005 12.7039 302.672 12.7039Z" fill="#5A668A"/>
<path d="M305.88 10.8024V7.97389H305.219V6.59415H305.88V5.01839H307.579V6.59415H308.877V7.97389H307.579V10.5597C307.579 11.0577 307.851 11.2663 308.311 11.2663C308.512 11.2663 308.688 11.2314 308.877 11.1854V12.5533C308.618 12.6342 308.252 12.6809 307.827 12.6809C306.529 12.6809 305.88 12.1592 305.88 10.8024Z" fill="#5A668A"/>
<mask id="mask0_0_748" style="mask-type:luminance" maskUnits="userSpaceOnUse" x="309" y="6" width="5" height="7">
<path fill-rule="evenodd" clip-rule="evenodd" d="M309.251 6.35419H313.88V12.7828H309.251V6.35419Z" fill="white"/>
</mask>
<g mask="url(#mask0_0_748)">
<path d="M311.65 12.7039C310.823 12.7039 310.057 12.4954 309.396 12.1473L309.738 10.7913C310.387 11.1387 311.036 11.3479 311.626 11.3479C312.062 11.3479 312.299 11.1624 312.299 10.9071C312.299 10.6525 312.157 10.536 311.331 10.2116C310.186 9.75961 309.62 9.33062 309.62 8.32197C309.62 7.20869 310.399 6.49022 311.768 6.49022C312.463 6.49022 313.101 6.65275 313.679 6.93107L313.337 8.28709C312.806 8.02063 312.263 7.84625 311.768 7.84625C311.402 7.84625 311.201 7.99761 311.201 8.24106C311.201 8.47264 311.331 8.58843 312.145 8.91349C313.431 9.41154 313.879 9.8754 313.879 10.8262C313.879 12.0782 312.983 12.7039 311.65 12.7039Z" fill="#5A668A"/>
</g>
<defs>
<clipPath id="clip0_0_748">
<rect width="45" height="17" fill="white" transform="translate(79)"/>
</clipPath>
</defs>
</svg>
