<svg width="66" height="36" viewBox="0 0 66 36" fill="none" xmlns="http://www.w3.org/2000/svg">
<g id="pod 2">
<path id="pod" fill-rule="evenodd" clip-rule="evenodd" d="M55.0138 28.8871C57.3341 28.8871 59.2326 27.911 60.7091 25.9588L61.3024 28.4914H65.8507V0H60.0763V10.6051C59.4962 9.84009 58.725 9.19376 57.7626 8.66614C56.8002 8.13852 55.6862 7.87471 54.4205 7.87471C52.944 7.87471 51.619 8.25724 50.4457 9.02228C49.2723 9.78733 48.3429 10.9349 47.6573 12.465C46.9718 13.9951 46.629 15.8549 46.629 18.0446V18.4799C46.629 20.775 46.9982 22.7008 47.7364 24.2573C48.4747 25.8138 49.4767 26.9745 50.7423 27.7396C52.0079 28.5046 53.4318 28.8871 55.0138 28.8871ZM5.97072 26.1567V35.6538H0.196289V8.27043H4.74464L5.3379 10.803C6.81447 8.85081 8.71291 7.87471 11.0332 7.87471C12.6153 7.87471 14.0391 8.25724 15.3047 9.02228C16.5704 9.78733 17.5723 10.9481 18.3106 12.5046C19.0489 14.061 19.418 15.9869 19.418 18.282V18.7173C19.418 20.9069 19.0752 22.7668 18.3897 24.2969C17.7041 25.8269 16.7747 26.9745 15.6014 27.7396C14.428 28.5046 13.1031 28.8871 11.6265 28.8871C10.3609 28.8871 9.24685 28.6233 8.28444 28.0957C7.32204 27.5681 6.5508 26.9218 5.97072 26.1567ZM7.03859 23.4461C7.75051 24.2771 8.66018 24.6926 9.7676 24.6926C10.875 24.6926 11.7847 24.2771 12.4966 23.4461C13.2085 22.6151 13.5645 21.4345 13.5645 19.9044V16.62C13.5645 15.0635 13.2085 13.8764 12.4966 13.0586C11.7847 12.2408 10.875 11.8319 9.7676 11.8319C8.66018 11.8319 7.75051 12.2408 7.03859 13.0586C6.32667 13.8764 5.97072 15.0635 5.97072 16.62V19.9044C5.97072 21.4345 6.32667 22.6151 7.03859 23.4461ZM33.3399 28.8871C35.212 28.8871 36.8995 28.4914 38.4024 27.7C39.9054 26.9086 41.0853 25.761 41.9422 24.2573C42.7992 22.7536 43.2276 20.986 43.2276 18.9547V17.8071C43.2276 15.7758 42.7992 14.0083 41.9422 12.5046C41.0853 11.0009 39.9054 9.85328 38.4024 9.06185C36.8995 8.27043 35.212 7.87471 33.3399 7.87471H32.7071C30.835 7.87471 29.1475 8.27043 27.6446 9.06185C26.1417 9.85328 24.9617 11.0009 24.1048 12.5046C23.2479 14.0083 22.8194 15.7758 22.8194 17.8071V18.9547C22.8194 20.986 23.2479 22.7536 24.1048 24.2573C24.9617 25.761 26.1417 26.9086 27.6446 27.7C29.1475 28.4914 30.835 28.8871 32.7071 28.8871H33.3399ZM29.8792 23.6637C30.6834 24.5079 31.7315 24.93 33.0235 24.93C34.3155 24.93 35.3636 24.5079 36.1678 23.6637C36.972 22.8195 37.3741 21.5928 37.3741 19.9836V16.7783C37.3741 15.169 36.972 13.9423 36.1678 13.0981C35.3636 12.2539 34.3155 11.8319 33.0235 11.8319C31.7315 11.8319 30.6834 12.2539 29.8792 13.0981C29.075 13.9423 28.6729 15.169 28.6729 16.7783V19.9836C28.6729 21.5928 29.075 22.8195 29.8792 23.6637ZM53.5504 23.6835C54.2623 24.5145 55.172 24.93 56.2794 24.93C57.3869 24.93 58.2965 24.5145 59.0084 23.6835C59.7204 22.8525 60.0763 21.6719 60.0763 20.1418V16.8574C60.0763 15.3009 59.7204 14.1138 59.0084 13.296C58.2965 12.4782 57.3869 12.0693 56.2794 12.0693C55.172 12.0693 54.2623 12.4782 53.5504 13.296C52.8385 14.1138 52.4825 15.3009 52.4825 16.8574V20.1418C52.4825 21.6719 52.8385 22.8525 53.5504 23.6835Z" fill="white"/>
</g>
</svg>
