<svg width="536" height="29" viewBox="0 0 536 29" fill="none" xmlns="http://www.w3.org/2000/svg">
<path fill-rule="evenodd" clip-rule="evenodd" d="M14.4251 0.047821C6.4825 0.047821 0.043457 6.51983 0.043457 14.5033C0.043457 22.4871 6.4825 28.9586 14.4251 28.9586C22.3685 28.9586 28.8069 22.4871 28.8069 14.5033C28.8069 6.52034 22.3685 0.0485115 14.4249 0.0485115L14.4251 0.047821ZM21.0204 20.8967C20.7628 21.3214 20.2098 21.456 19.7873 21.1954C16.4107 19.1222 12.1599 18.6527 7.15381 19.8023C6.67141 19.9128 6.19055 19.609 6.08064 19.124C5.97021 18.6389 6.27126 18.1556 6.75487 18.0451C12.2332 16.787 16.9324 17.3287 20.7233 19.6573C21.1458 19.918 21.2797 20.4721 21.0204 20.8967ZM21.2385 17.3322C21.7657 17.6584 22.4561 17.491 22.7807 16.9607V16.9609C23.1053 16.4316 22.9387 15.7377 22.4115 15.4114C17.9721 12.6694 11.479 11.8978 6.25598 13.4907C5.66401 13.672 5.32964 14.3003 5.50824 14.8963C5.68822 15.4914 6.31454 15.8273 6.90754 15.6472C11.48 14.2521 17.3727 14.9438 21.2385 17.3322ZM22.9318 12.862C18.2967 10.0948 10.6493 9.84033 6.22386 11.1904C5.51322 11.407 4.76171 11.0038 4.54635 10.2895C4.331 9.57484 4.73183 8.81998 5.44298 8.60282C10.5231 7.0527 18.9682 7.3522 24.3047 10.5365C24.9452 10.9178 25.1548 11.7476 24.7752 12.3892C24.3974 13.0317 23.5696 13.2435 22.9325 12.862H22.9318ZM36.2464 11.5016C36.2464 12.3794 36.6878 12.7971 39.1711 13.3923L39.1763 13.3946C42.2005 14.1341 43.4353 15.282 43.4301 17.3546C43.4301 19.811 41.5634 21.3973 38.6748 21.3973C36.6311 21.3973 34.7386 20.6689 33.1999 19.2879C33.1346 19.2292 33.1277 19.1291 33.1844 19.0601L34.5446 17.434C34.572 17.4012 34.6115 17.3805 34.6562 17.377C34.6974 17.3753 34.742 17.3874 34.7747 17.4167C36.097 18.5664 37.2803 19.0584 38.7297 19.0584C40.0349 19.0584 40.8455 18.4904 40.8455 17.5773C40.8455 16.7535 40.4437 16.2927 38.0686 15.7425C35.2761 15.0643 33.6601 14.1857 33.6601 11.7043C33.6601 9.39031 35.5337 7.77304 38.2145 7.77304C40.0384 7.77304 41.5977 8.31627 42.9836 9.43364C43.0506 9.48767 43.0643 9.5852 43.0145 9.65597L41.8021 11.3739C41.7763 11.41 41.7385 11.4339 41.6939 11.4405C41.651 11.4474 41.6063 11.4369 41.572 11.4105C40.4076 10.5381 39.2982 10.1143 38.1785 10.1143C37.0227 10.1143 36.2464 10.6724 36.2464 11.5016ZM49.9664 10.9308C48.7144 10.9308 47.6875 11.4265 46.8391 12.4424V11.299C46.8391 11.2087 46.7669 11.1351 46.6776 11.1351H44.4537C44.3644 11.1351 44.2922 11.2087 44.2922 11.299V24.0039C44.2922 24.0937 44.3644 24.1679 44.4537 24.1679H46.6776C46.7669 24.1679 46.8391 24.0937 46.8391 24.0039V19.994C47.6875 20.9485 48.7144 21.4163 49.9664 21.4163C52.2934 21.4163 54.6496 19.6159 54.6496 16.1741C54.653 12.7315 52.2968 10.9306 49.9681 10.9306L49.9664 10.9308ZM49.4512 19.1498C50.9899 19.1498 52.0633 17.926 52.0633 16.1741V16.1739C52.0633 14.4494 50.9642 13.1983 49.4512 13.1985C47.9313 13.1985 46.7841 14.4772 46.7841 16.1741C46.7841 17.8707 47.9313 19.1498 49.4512 19.1498ZM60.6861 10.9308C57.6893 10.9308 55.3417 13.2501 55.3417 16.2115C55.3417 19.1412 57.6739 21.4353 60.65 21.4353C63.6571 21.4353 66.0116 19.124 66.0116 16.1741C66.0116 13.2342 63.6726 10.9311 60.6861 10.9311V10.9308ZM57.8902 16.1732C57.8902 17.8794 59.0924 19.1671 60.6861 19.1671C62.2952 19.1671 63.463 17.9242 63.463 16.2107C63.463 14.5028 62.254 13.2155 60.65 13.2155C59.0512 13.2155 57.8902 14.4593 57.8902 16.1732ZM72.4105 11.1351H69.9632V8.62077C69.9632 8.53067 69.8911 8.45713 69.8018 8.45713H67.5778C67.4885 8.45713 67.4147 8.53067 67.4147 8.62077V11.1351H66.3465C66.2572 11.1351 66.1851 11.2087 66.1851 11.299V13.2197C66.1851 13.3098 66.2572 13.3835 66.3465 13.3835H67.4147V18.3541C67.4147 20.3616 68.409 21.3801 70.372 21.3801C71.1688 21.3801 71.83 21.2144 72.4534 20.8588C72.5049 20.8312 72.5358 20.7759 72.5358 20.7172V18.8875C72.5358 18.8322 72.5066 18.7787 72.4585 18.7494C72.4105 18.7183 72.3503 18.7166 72.3005 18.7425C71.8729 18.9582 71.459 19.0584 70.9954 19.0584C70.2827 19.0584 69.9632 18.7321 69.9632 18.0037V13.3844H72.4105C72.4998 13.3844 72.5719 13.3108 72.5719 13.2206V11.3C72.5753 11.2097 72.5032 11.1362 72.4122 11.1362L72.4105 11.1351ZM80.9354 10.8362V11.145V11.1455H84.7342C84.8012 11.1455 84.8613 11.1874 84.8853 11.2508L87.4819 18.0623L89.8536 11.2553C89.8759 11.1899 89.9378 11.1455 90.0082 11.1455H92.3232C92.3764 11.1455 92.4262 11.1723 92.4554 11.2166C92.4863 11.2613 92.4932 11.3183 92.4726 11.3687L88.6154 21.387C87.8168 23.455 86.9083 24.2248 85.2666 24.2248C84.389 24.2248 83.6797 24.0419 82.8932 23.6138C82.8176 23.5723 82.7867 23.4809 82.8228 23.4015L83.5767 21.7391C83.5939 21.6977 83.6299 21.6666 83.6729 21.6511C83.7141 21.639 83.7622 21.6425 83.8017 21.6632C84.2224 21.8962 84.6363 22.0136 85.0278 22.0136C85.5121 22.0136 85.8676 21.8531 86.2283 21.0487L83.0477 13.384H80.9715V21.0487C80.9715 21.1401 80.8993 21.2126 80.8083 21.2126H78.5861C78.4968 21.2126 78.4229 21.1401 78.4229 21.0487V13.3835H77.3547C77.2654 13.3835 77.1916 13.3098 77.1916 13.2197V11.2891C77.1916 11.199 77.2654 11.1255 77.3547 11.1255H78.4229V10.6525C78.4229 8.45454 79.51 7.29212 81.5622 7.29212C82.4072 7.29212 82.9705 7.42729 83.4101 7.55899C83.4805 7.58023 83.5252 7.64392 83.5252 7.7159V9.59918C83.5252 9.65165 83.5011 9.7012 83.4582 9.73209C83.417 9.76299 83.3637 9.77111 83.3122 9.75488C82.8949 9.61506 82.5222 9.52254 82.0585 9.52254C81.2823 9.52254 80.9354 9.92767 80.9354 10.8362ZM75.9929 11.1351H73.7689C73.6796 11.1351 73.6057 11.2087 73.6057 11.299V21.0487C73.6057 21.1401 73.6796 21.2126 73.7689 21.2126H75.9929C76.0822 21.2126 76.156 21.1401 76.156 21.0487V11.2996C76.156 11.2094 76.0839 11.1358 75.9929 11.1358V11.1351ZM73.2983 8.29763C73.2983 7.41227 74.0127 6.69555 74.8937 6.69555C75.773 6.69555 76.4874 7.41244 76.4874 8.29763C76.4874 9.18351 75.7747 9.90109 74.8937 9.90109C74.0127 9.90109 73.2983 9.18351 73.2983 8.29763ZM94.372 14.2701C93.4927 14.2701 92.8074 13.5597 92.8074 12.6972C92.8074 11.8346 93.5013 11.1162 94.3805 11.1162C95.2598 11.1162 95.9451 11.8263 95.9451 12.6882C95.9451 13.5508 95.2512 14.2701 94.372 14.2701ZM92.9723 12.6972C92.9723 11.913 93.5785 11.2725 94.3805 11.2725C95.1774 11.2725 95.7802 11.9043 95.7802 12.6882C95.7802 13.4729 95.174 14.1128 94.372 14.1128C93.5751 14.1128 92.9723 13.481 92.9723 12.6972ZM94.7274 12.8499L95.1705 13.4727H94.7961L94.3977 12.9014H94.056V13.4727H93.7434V11.8218H94.475C94.858 11.8218 95.1087 12.0181 95.1087 12.3485C95.1104 12.6191 94.9541 12.7845 94.7292 12.8499H94.7274ZM94.056 12.1051H94.463C94.6656 12.1051 94.7876 12.1961 94.7876 12.3659C94.7876 12.5273 94.6656 12.6273 94.463 12.6273H94.056V12.1051Z" fill="#5A668A"/>
<g clip-path="url(#clip0_0_574)">
<path d="M149.085 16.3587C149.266 16.3579 149.442 16.3649 149.611 16.3794L149.628 16.3681C149.846 16.3969 150.279 16.4533 150.679 16.5811C151.081 16.7063 151.446 16.903 151.731 17.1047C152.007 17.3051 152.209 17.513 152.334 17.7661C152.46 18.0191 152.523 18.3198 152.561 18.8121C152.586 19.3056 152.586 19.9896 152.473 21.2673C152.36 22.5412 152.133 24.409 151.957 25.6053C151.781 26.8078 151.655 27.334 151.492 27.7223C151.328 28.1231 151.114 28.3862 150.875 28.5741C150.636 28.762 150.359 28.8747 150.095 28.9374C149.831 29 149.592 29 149.365 29C149.139 29 148.925 29 148.636 28.9374C148.346 28.8747 147.969 28.762 147.692 28.5365C147.57 28.4417 147.466 28.3291 147.376 28.1987C146.891 27.7046 146.677 26.7754 146.356 24.5505C145.824 20.8673 145.708 18.5875 146.016 17.8653C146.425 16.9081 147.533 16.3649 149.085 16.3587ZM149.098 0C152.737 0 156.026 1.40093 158.531 4.02007C160.437 5.99654 161.508 8.08861 162.057 10.8445C162.244 11.7619 162.244 14.2629 162.069 15.2946C161.496 18.5564 159.677 21.5274 157.023 23.5237C156.076 24.2372 153.758 25.4828 153.385 25.4828C153.248 25.4828 153.235 25.3411 153.297 24.768C153.41 23.8482 153.522 23.6567 154.045 23.438C154.88 23.0899 156.3 22.0805 157.172 21.2079C158.68 19.7162 159.789 17.7646 160.3 15.7136C160.624 14.4332 160.586 11.5866 160.225 10.2689C159.091 6.07982 155.665 2.823 151.466 1.95285C150.245 1.70424 148.027 1.70424 146.793 1.95285C142.545 2.823 139.031 6.24142 137.959 10.5424C137.673 11.7109 137.673 14.5575 137.959 15.726C138.67 18.5726 140.514 21.183 142.931 22.7369C143.404 23.0476 143.977 23.3708 144.214 23.4703C144.738 23.694 144.85 23.8805 144.949 24.8004C145.012 25.3597 144.999 25.5213 144.862 25.5213C144.775 25.5213 144.139 25.2479 143.467 24.9247L143.404 24.8787C139.554 22.9892 137.087 19.792 136.19 15.5383C135.966 14.4407 135.928 11.8215 136.14 10.8146C136.701 8.11099 137.772 5.99654 139.554 4.12697C142.121 1.42704 145.423 0 149.098 0ZM178.479 17.3189C180.37 17.3189 181.53 18.5697 181.53 20.6293C181.53 22.6947 180.376 23.9397 178.479 23.9397C176.576 23.9397 175.428 22.6947 175.428 20.6293C175.428 18.5756 176.594 17.3189 178.479 17.3189ZM206.645 17.3189C208.153 17.3189 209.099 17.988 209.203 19.1457H207.852C207.747 18.6977 207.324 18.4127 206.651 18.4127C205.996 18.4127 205.503 18.7268 205.503 19.1864C205.503 19.5472 205.804 19.7682 206.442 19.9137L207.562 20.1697C208.774 20.4431 209.337 20.9667 209.337 21.9034C209.337 23.1252 208.217 23.9397 206.634 23.9397C205.05 23.9397 204.052 23.2532 203.942 22.0954H205.363C205.503 22.5667 205.949 22.8459 206.668 22.8459C207.393 22.8459 207.898 22.5259 207.898 22.0547C207.898 21.694 207.625 21.4671 207.022 21.3333L205.897 21.0715C204.679 20.7922 204.105 20.2279 204.105 19.2679C204.105 18.1159 205.149 17.3189 206.645 17.3189ZM193.27 17.3189C194.9 17.3189 195.886 18.2498 196.036 19.5879H194.668C194.534 18.9712 194.059 18.529 193.27 18.529C192.284 18.529 191.698 19.2912 191.698 20.6118C191.698 21.95 192.289 22.7296 193.27 22.7296C194.018 22.7296 194.517 22.3747 194.668 21.7114H196.036C195.88 23.0437 194.882 23.9397 193.276 23.9397C191.367 23.9397 190.242 22.7063 190.242 20.6118C190.242 18.5465 191.361 17.3189 193.27 17.3189ZM199.975 17.3189C201.605 17.3189 202.521 18.1159 202.521 19.4657V23.8117H201.135V22.939H201.036C200.683 23.5557 199.986 23.9164 199.157 23.9164C197.933 23.9164 197.057 23.1717 197.057 22.0081C197.057 20.8562 197.922 20.1929 199.464 20.0999L201.1 20.001V19.4657C201.1 18.8432 200.683 18.4941 199.905 18.4941C199.244 18.4941 198.792 18.7268 198.658 19.1574H197.301C197.417 18.0345 198.467 17.3189 199.975 17.3189ZM188.74 14.9859V23.8117H187.348V22.8052H187.249C186.889 23.5033 186.159 23.9164 185.277 23.9164C183.67 23.9164 182.667 22.6481 182.667 20.6235C182.667 18.6105 183.676 17.3422 185.277 17.3422C186.147 17.3422 186.866 17.7611 187.203 18.4592H187.301V14.9859H188.74ZM212.643 15.8877V17.4876H214V18.6396H212.643V21.7638C212.643 22.3921 212.91 22.6714 213.513 22.6714C213.716 22.6714 213.826 22.6597 214 22.6423V23.771C213.791 23.8117 213.524 23.8408 213.246 23.8408C211.79 23.8408 211.21 23.3463 211.21 22.1129V18.6396H210.207V17.4876H211.21V15.8877H212.643ZM171.606 15.4164C173.276 15.4164 174.419 16.5626 174.419 18.2556C174.419 19.9195 173.235 21.0598 171.542 21.0598H169.726V23.8117H168.23V15.4164H171.606ZM201.1 20.9725L199.667 21.0656C198.861 21.118 198.484 21.4089 198.484 21.9267C198.484 22.4619 198.942 22.7819 199.58 22.7819C200.451 22.7819 201.1 22.2176 201.1 21.4787V20.9725ZM178.479 18.529C177.476 18.529 176.901 19.3028 176.901 20.6293C176.901 21.9616 177.476 22.7296 178.479 22.7296C179.482 22.7296 180.051 21.9616 180.051 20.6293C180.051 19.3028 179.477 18.529 178.479 18.529ZM185.724 18.5697C184.743 18.5697 184.14 19.3493 184.14 20.6293C184.14 21.9151 184.737 22.6888 185.724 22.6888C186.715 22.6888 187.319 21.9092 187.319 20.6293C187.319 19.361 186.71 18.5697 185.724 18.5697ZM151.03 4.53096C155.366 5.49434 158.443 9.82641 157.845 14.1237C157.608 15.8553 157.01 17.2773 155.951 18.5987C155.428 19.2662 154.157 20.3862 153.933 20.3862C153.899 20.3862 153.865 20.0369 153.859 19.5868L153.858 18.5092L154.506 17.7385C156.948 14.8198 156.774 10.7426 154.107 8.06748C153.073 7.02579 151.877 6.4142 150.332 6.13203C149.335 5.94806 149.123 5.94806 148.077 6.1196C146.488 6.37816 145.257 6.99223 144.164 8.07121C141.485 10.7189 141.311 14.8173 143.753 17.7385L144.396 18.5092V19.4539C144.396 19.976 144.355 20.3987 144.304 20.3987C144.254 20.3987 143.893 20.1501 143.506 19.8393L143.454 19.8219C142.158 18.7901 141.012 16.9604 140.539 15.1654C140.252 14.0814 140.252 12.0204 140.551 10.939C141.336 8.02024 143.492 5.75787 146.482 4.69505C147.504 4.33456 149.771 4.25376 151.03 4.53096ZM171.211 16.6731H169.726V19.8148H171.205C172.273 19.8148 172.899 19.2563 172.899 18.2556C172.899 17.2258 172.29 16.6731 171.211 16.6731ZM150.419 9.28817C151.581 9.75002 152.396 10.8736 152.396 12.1871C152.396 13.9067 151 15.3006 149.277 15.3006C148.149 15.3006 147.16 14.7023 146.613 13.806L146.559 13.7337C146.236 13.2529 146.065 12.6655 146.058 11.9956C146.058 10.8582 146.694 9.86619 147.79 9.28568C148.488 8.92022 149.721 8.92022 150.419 9.28817ZM187.498 5.42705C189.105 5.42705 190.114 6.67209 190.114 8.71418C190.114 10.7446 189.117 12.0013 187.516 12.0013C186.605 12.0013 185.903 11.6057 185.579 10.9308H185.48V14.0143H184.041V5.53177H185.428V6.58482H185.526C185.892 5.8634 186.628 5.42705 187.498 5.42705ZM179.981 5.42705C181.588 5.42705 182.597 6.67209 182.597 8.71418C182.597 10.7446 181.6 12.0013 179.999 12.0013C179.088 12.0013 178.386 11.6057 178.061 10.9308H177.963V14.0143H176.524V5.53177H177.911V6.58482H178.009C178.375 5.8634 179.111 5.42705 179.981 5.42705ZM197.539 5.40378C199.348 5.40378 200.433 6.60809 200.433 8.61527V9.08071H196.002V9.15634C196.036 10.2152 196.645 10.8784 197.591 10.8784C198.304 10.8784 198.797 10.6166 199.006 10.1454H200.369C200.108 11.3032 199.047 12.0246 197.55 12.0246C195.683 12.0246 194.557 10.7854 194.557 8.73745C194.557 6.68954 195.7 5.40378 197.539 5.40378ZM193.055 3.07079V11.8966H191.617V3.07079H193.055ZM172.261 3.50132L175.237 11.8966H173.63L172.922 9.74977H169.842L169.123 11.8966H167.609L170.579 3.50132H172.261ZM179.535 6.65463C178.554 6.65463 177.94 7.44587 177.934 8.71418C177.94 9.98831 178.549 10.7737 179.529 10.7737C180.526 10.7737 181.118 9.99994 181.118 8.71418C181.118 7.42842 180.521 6.65463 179.535 6.65463ZM187.052 6.65463C186.072 6.65463 185.457 7.44587 185.451 8.71418C185.457 9.98831 186.066 10.7737 187.046 10.7737C188.044 10.7737 188.635 9.99994 188.635 8.71418C188.635 7.42842 188.038 6.65463 187.052 6.65463ZM171.437 5.10125H171.339L170.19 8.56291H172.574L171.437 5.10125ZM197.533 6.54991C196.674 6.54991 196.071 7.16661 196.007 8.09748H198.995C198.966 7.15497 198.397 6.54991 197.533 6.54991Z" fill="#5A668A"/>
</g>
<path d="M262.719 17.91H264.925V15.263V14.205V11.558H262.719V14.205V15.263V17.91Z" fill="#5A668A"/>
<ellipse cx="256.103" cy="14.1385" rx="1.10274" ry="1.09175" fill="#5A668A"/>
<ellipse cx="256.103" cy="15.3295" rx="1.10274" ry="1.09175" fill="#5A668A"/>
<rect x="255" y="14.1385" width="2.20548" height="1.191" fill="#5A668A"/>
<ellipse cx="271.541" cy="15.3295" rx="1.10274" ry="1.09175" fill="#5A668A"/>
<ellipse cx="271.541" cy="14.1385" rx="1.10274" ry="1.09175" fill="#5A668A"/>
<rect x="272.644" y="15.3295" width="2.20548" height="1.191" transform="rotate(180 272.644 15.3295)" fill="#5A668A"/>
<ellipse cx="259.912" cy="17.7115" rx="1.10274" ry="1.09175" fill="#5A668A"/>
<ellipse cx="259.912" cy="18.9025" rx="1.10274" ry="1.09175" fill="#5A668A"/>
<rect x="258.809" y="17.7115" width="2.20548" height="1.191" fill="#5A668A"/>
<ellipse cx="259.912" cy="10.5655" rx="1.10274" ry="1.09175" fill="#5A668A"/>
<ellipse cx="259.912" cy="14.4362" rx="1.10274" ry="1.09175" fill="#5A668A"/>
<rect x="258.809" y="10.5655" width="2.20548" height="3.89556" fill="#5A668A"/>
<ellipse cx="267.732" cy="11.7565" rx="1.10274" ry="1.09175" fill="#5A668A"/>
<ellipse cx="267.732" cy="10.5655" rx="1.10274" ry="1.09175" fill="#5A668A"/>
<rect x="268.834" y="11.7565" width="2.20548" height="1.191" transform="rotate(180 268.834 11.7565)" fill="#5A668A"/>
<ellipse cx="263.822" cy="8.28274" rx="1.10274" ry="1.09175" fill="#5A668A"/>
<ellipse cx="263.822" cy="7.09175" rx="1.10274" ry="1.09175" fill="#5A668A"/>
<rect x="264.925" y="8.28275" width="2.20548" height="1.191" transform="rotate(180 264.925 8.28275)" fill="#5A668A"/>
<ellipse cx="263.822" cy="22.3762" rx="1.10274" ry="1.09175" fill="#5A668A"/>
<ellipse cx="263.822" cy="21.1852" rx="1.10274" ry="1.09175" fill="#5A668A"/>
<rect x="264.925" y="22.3762" width="2.20548" height="1.191" transform="rotate(180 264.925 22.3762)" fill="#5A668A"/>
<ellipse cx="267.732" cy="18.9025" rx="1.10274" ry="1.09175" fill="#5A668A"/>
<ellipse cx="267.732" cy="15.0317" rx="1.10274" ry="1.09175" fill="#5A668A"/>
<rect x="268.834" y="18.9025" width="2.20548" height="3.87075" transform="rotate(180 268.834 18.9025)" fill="#5A668A"/>
<ellipse cx="263.822" cy="11.558" rx="1.10274" ry="1.09175" fill="#5A668A"/>
<ellipse cx="263.822" cy="17.91" rx="1.10274" ry="1.09175" fill="#5A668A"/>
<path fill-rule="evenodd" clip-rule="evenodd" d="M324.601 18.8022H325.95V14.8115H328.179C329.068 14.8115 329.838 14.534 330.488 13.979C331.138 13.424 331.463 12.7245 331.463 11.8804C331.463 11.0364 331.138 10.3369 330.488 9.78188C329.838 9.22685 329.068 8.94934 328.179 8.94934H324.601V18.8022ZM328.208 13.6006H325.95V10.1603H328.208C328.775 10.1603 329.229 10.3392 329.572 10.697C329.914 11.0548 330.085 11.4493 330.085 11.8804C330.085 12.3116 329.914 12.7061 329.572 13.0639C329.229 13.4217 328.775 13.6006 328.208 13.6006ZM332.581 12.8712C333.275 12.1832 334.16 11.8392 335.235 11.8392C336.31 11.8392 337.195 12.1809 337.889 12.8644C338.583 13.5478 338.93 14.4033 338.93 15.4308C338.93 16.4583 338.583 17.3137 337.889 17.9972C337.195 18.6807 336.31 19.0224 335.235 19.0224C334.16 19.0224 333.275 18.6807 332.581 17.9972C331.887 17.3137 331.54 16.4583 331.54 15.4308C331.54 14.4033 331.887 13.5501 332.581 12.8712ZM335.235 17.8665C334.6 17.8665 334.047 17.6463 333.578 17.206C333.119 16.7564 332.889 16.1647 332.889 15.4308C332.889 14.6969 333.121 14.1074 333.586 13.6625C334.05 13.2176 334.6 12.9951 335.235 12.9951C335.87 12.9951 336.42 13.2176 336.884 13.6625C337.349 14.1074 337.581 14.6969 337.581 15.4308C337.581 16.1647 337.349 16.7541 336.884 17.1991C336.42 17.644 335.87 17.8665 335.235 17.8665ZM342.995 19.0224C342.066 19.0224 341.265 18.6784 340.591 17.9903C339.916 17.3023 339.579 16.4491 339.579 15.4308C339.579 14.4125 339.916 13.5593 340.591 12.8712C341.265 12.1832 342.066 11.8392 342.995 11.8392C343.542 11.8392 344.034 11.9492 344.468 12.1694C344.903 12.3896 345.228 12.6648 345.443 12.9951H345.502L345.443 12.0593V8.94934H346.792V18.8022H345.502V17.8665H345.443C345.228 18.1968 344.903 18.472 344.468 18.6921C344.034 18.9123 343.542 19.0224 342.995 19.0224ZM344.835 17.206C344.39 17.6463 343.85 17.8665 343.215 17.8665C342.589 17.8665 342.052 17.644 341.602 17.1991C341.153 16.7541 340.928 16.1647 340.928 15.4308C340.928 14.6969 341.153 14.1074 341.602 13.6625C342.052 13.2176 342.589 12.9951 343.215 12.9951C343.85 12.9951 344.39 13.2153 344.835 13.6556C345.28 14.096 345.502 14.6877 345.502 15.4308C345.502 16.1739 345.28 16.7656 344.835 17.206ZM351.473 19.0224C350.398 19.0224 349.514 18.6807 348.82 17.9972C348.126 17.3137 347.779 16.4583 347.779 15.4308C347.779 14.4033 348.126 13.5478 348.82 12.8644C349.514 12.1809 350.398 11.8392 351.473 11.8392C352.275 11.8392 352.94 12.0226 353.467 12.3896C353.995 12.7566 354.381 13.2198 354.626 13.7795L353.394 14.2611C353.023 13.4171 352.353 12.9951 351.385 12.9951C350.789 12.9951 350.264 13.2244 349.809 13.6831C349.355 14.1418 349.128 14.7244 349.128 15.4308C349.128 16.1372 349.355 16.7197 349.809 17.1784C350.264 17.6371 350.789 17.8665 351.385 17.8665C352.392 17.8665 353.086 17.4445 353.467 16.6005L354.67 17.0821C354.425 17.6326 354.032 18.0935 353.489 18.4651C352.947 18.8366 352.275 19.0224 351.473 19.0224ZM355.957 18.4032C356.47 18.816 357.108 19.0224 357.87 19.0224H357.87C358.906 19.0224 359.693 18.6371 360.23 17.8665H360.289V18.8022H361.579V14.729C361.579 13.8116 361.276 13.1006 360.67 12.596C360.064 12.0914 359.302 11.8392 358.383 11.8392C357.582 11.8392 356.936 12.0112 356.448 12.3552C355.959 12.6992 355.632 13.0731 355.465 13.4767L356.697 13.9721C356.814 13.6694 357.032 13.4309 357.349 13.2565C357.667 13.0822 358.021 12.9951 358.412 12.9951C358.94 12.9951 359.385 13.1442 359.747 13.4423C360.108 13.7405 360.289 14.1372 360.289 14.6326V14.8253C359.781 14.5501 359.131 14.4125 358.339 14.4125C357.45 14.4125 356.702 14.6212 356.096 15.0386C355.49 15.456 355.187 16.0317 355.187 16.7656C355.187 17.4445 355.443 17.9903 355.957 18.4032ZM358.09 17.8665C358.647 17.8665 359.153 17.6715 359.607 17.2816C360.062 16.8917 360.289 16.4308 360.289 15.8987C359.908 15.6051 359.336 15.4583 358.574 15.4583C357.919 15.4583 357.425 15.5913 357.093 15.8574C356.761 16.1234 356.594 16.4353 356.594 16.7931C356.594 17.1234 356.746 17.3849 357.049 17.5775C357.352 17.7702 357.699 17.8665 358.09 17.8665ZM363.541 18.472C364.064 18.8389 364.726 19.0224 365.527 19.0224C366.358 19.0224 367.037 18.8206 367.565 18.4169C368.093 18.0133 368.357 17.5087 368.357 16.9032C368.357 16.4537 368.196 16.05 367.873 15.6922C367.551 15.3345 367.052 15.0822 366.378 14.9354L364.956 14.6189C364.32 14.4813 364.003 14.2198 364.003 13.8345C364.003 13.5685 364.139 13.3575 364.413 13.2015C364.687 13.0455 365.024 12.9676 365.425 12.9676C366.256 12.9676 366.803 13.2657 367.067 13.862L368.24 13.4079C368.025 12.9033 367.668 12.5157 367.169 12.2451C366.671 11.9745 366.104 11.8392 365.469 11.8392C364.697 11.8392 364.029 12.0249 363.467 12.3965C362.905 12.768 362.624 13.252 362.624 13.8483C362.624 14.3712 362.83 14.7863 363.24 15.0936C363.651 15.401 364.086 15.6097 364.545 15.7198L365.996 16.05C366.651 16.206 366.979 16.5041 366.979 16.9445C366.979 17.2289 366.844 17.4582 366.576 17.6325C366.307 17.8069 365.962 17.894 365.542 17.894C364.623 17.894 363.973 17.472 363.592 16.628L362.39 17.0959C362.634 17.6463 363.018 18.105 363.541 18.472ZM372.393 18.9123C371.64 18.9123 371.066 18.7243 370.67 18.3481C370.274 17.972 370.077 17.4399 370.077 16.7518V13.2153H368.816V12.0593H370.077V9.99518H371.425V12.0593H373.185V13.2153H371.425V16.6555C371.425 17.3894 371.748 17.7564 372.393 17.7564C372.637 17.7564 372.843 17.7197 373.009 17.6463L373.478 18.7334C373.185 18.8527 372.823 18.9123 372.393 18.9123ZM375.131 18.472C375.654 18.8389 376.317 19.0224 377.118 19.0224C377.949 19.0224 378.628 18.8206 379.156 18.4169C379.684 18.0133 379.948 17.5087 379.948 16.9032C379.948 16.4537 379.786 16.05 379.464 15.6922C379.141 15.3345 378.643 15.0822 377.968 14.9354L376.546 14.6189C375.911 14.4813 375.593 14.2198 375.593 13.8345C375.593 13.5685 375.73 13.3575 376.004 13.2015C376.278 13.0455 376.615 12.9676 377.015 12.9676C377.846 12.9676 378.394 13.2657 378.658 13.862L379.83 13.4079C379.615 12.9033 379.259 12.5157 378.76 12.2451C378.262 11.9745 377.695 11.8392 377.059 11.8392C376.287 11.8392 375.62 12.0249 375.058 12.3965C374.496 12.768 374.215 13.252 374.215 13.8483C374.215 14.3712 374.42 14.7863 374.831 15.0936C375.241 15.401 375.676 15.6097 376.136 15.7198L377.587 16.05C378.242 16.206 378.57 16.5041 378.57 16.9445C378.57 17.2289 378.435 17.4582 378.166 17.6325C377.898 17.8069 377.553 17.894 377.133 17.894C376.214 17.894 375.564 17.472 375.183 16.628L373.981 17.0959C374.225 17.6463 374.609 18.105 375.131 18.472Z" fill="#5A668A"/>
<path fill-rule="evenodd" clip-rule="evenodd" d="M283.059 8.33325C280.084 8.33325 277.591 10.7204 277.591 13.6663C277.591 16.602 280.084 18.9892 283.059 18.9892C284.66 18.9892 285.871 18.4711 286.825 17.4959C287.8 16.5411 288.097 15.19 288.097 14.0929C288.097 13.7476 288.067 13.4428 288.015 13.1787H283.059V14.6313H286.579C286.476 15.444 286.199 16.0433 285.778 16.4598C285.265 16.9677 284.465 17.5264 283.059 17.5264C280.894 17.5264 279.201 15.7995 279.201 13.6561C279.201 11.5128 280.894 9.78587 283.059 9.78587C284.229 9.78587 285.081 10.243 285.707 10.8322L286.753 9.80619C285.871 8.97321 284.701 8.33325 283.059 8.33325ZM295.526 15.6268C295.526 13.6358 293.966 12.1934 292.048 12.1934C290.129 12.1934 288.569 13.6358 288.569 15.6268C288.569 17.6077 290.129 19.0603 292.048 19.0603C293.966 19.0603 295.526 17.6077 295.526 15.6268ZM292.048 17.6991C293.094 17.6991 294.007 16.8458 294.007 15.6167C294.007 14.3774 293.094 13.5342 292.048 13.5342C290.991 13.5342 290.088 14.3774 290.088 15.6167C290.088 16.8458 291.001 17.6991 292.048 17.6991ZM303.119 15.6268C303.119 13.6358 301.559 12.1934 299.64 12.1934C297.722 12.1934 296.162 13.6358 296.162 15.6268C296.162 17.6077 297.722 19.0603 299.64 19.0603C301.559 19.0603 303.119 17.6077 303.119 15.6268ZM299.64 17.6991C300.687 17.6991 301.6 16.8458 301.6 15.6167C301.6 14.3774 300.697 13.5342 299.64 13.5342C298.583 13.5342 297.681 14.3774 297.681 15.6167C297.681 16.8458 298.594 17.6991 299.64 17.6991ZM310.414 12.3051H308.957V12.8638H308.906C308.567 12.4575 307.91 12.0918 307.079 12.0918C305.345 12.0918 303.755 13.5952 303.755 15.5354C303.755 17.4553 305.345 18.9587 307.079 18.9587C307.91 18.9587 308.567 18.593 308.906 18.1765H308.957V18.6743C308.957 19.9847 308.249 20.6856 307.11 20.6856C306.176 20.6856 305.602 20.0253 305.366 19.4666L304.042 20.0152C304.422 20.9294 305.437 22.0468 307.12 22.0468C308.906 22.0468 310.414 21.0107 310.414 18.4711V12.3051ZM307.213 17.6077C308.249 17.6077 309.07 16.7442 309.059 15.5354C309.059 14.3266 308.249 13.4428 307.213 13.4428C306.166 13.4428 305.284 14.3266 305.284 15.5354C305.284 16.7341 306.166 17.6077 307.213 17.6077ZM311.45 8.73958V18.8267H312.969V8.73958H311.45ZM317.145 17.6991C317.924 17.6991 318.458 17.3232 318.858 16.7544L320.038 17.5366C319.648 18.0953 318.735 19.0603 317.145 19.0603C315.175 19.0603 313.707 17.5467 313.707 15.6268C313.707 13.585 315.195 12.1934 316.981 12.1934C318.776 12.1934 319.658 13.6053 319.946 14.3774L320.1 14.7634L315.462 16.663C315.821 17.3436 316.365 17.6991 317.145 17.6991ZM315.216 15.5151C315.175 14.1945 316.252 13.5139 317.032 13.5139C317.637 13.5139 318.15 13.8085 318.314 14.2453L315.216 15.5151Z" fill="#5A668A"/>
<path fill-rule="evenodd" clip-rule="evenodd" d="M432.747 14.9115C432.747 22.045 426.984 27.828 419.873 27.828C412.763 27.828 407 22.045 407 14.9115C407 7.77911 412.763 1.99609 419.873 1.99609C426.984 1.99609 432.747 7.77911 432.747 14.9115ZM419.993 21.131C416.635 21.131 413.914 18.3996 413.914 15.0312C413.914 11.6627 416.635 8.93257 419.993 8.93257C423.35 8.93257 426.071 11.6627 426.071 15.0312H423.861C423.861 12.8875 422.129 11.15 419.993 11.15C417.856 11.15 416.124 12.8875 416.124 15.0312C416.124 17.1749 417.856 18.9123 419.993 18.9123V21.131ZM419.993 4.86644C414.397 4.86644 409.861 9.41741 409.861 15.0312C409.861 20.6449 414.397 25.1971 419.993 25.1971V22.6556C415.796 22.6556 412.394 19.2424 412.394 15.0312C412.394 10.8211 415.796 7.40792 419.993 7.40792C424.19 7.40792 427.591 10.8211 427.591 15.0312H430.124C430.124 9.41741 425.588 4.86644 419.993 4.86644Z" fill="#5A668A"/>
<path fill-rule="evenodd" clip-rule="evenodd" d="M441.016 8.04027V22.1055H444.12V18.0671H444.902C447.906 18.0671 450.089 16.5606 450.089 12.9237C450.089 9.66769 448.246 8.04027 444.822 8.04027H441.016ZM447.005 13.0229C447.005 14.7313 446.264 15.5353 444.781 15.5353H444.1V10.612H444.822C446.264 10.612 447.005 11.2745 447.005 13.0229Z" fill="#5A668A"/>
<path fill-rule="evenodd" clip-rule="evenodd" d="M450.388 16.9222C450.388 20.4781 452.27 22.3074 454.634 22.3074C456.998 22.3074 458.901 20.4587 458.901 16.881C458.901 13.3252 456.998 11.4765 454.654 11.4765C452.29 11.4765 450.388 13.3252 450.388 16.9222ZM453.152 16.881C453.152 14.9127 453.713 13.9478 454.614 13.9478C455.535 13.9478 456.136 14.9127 456.136 16.9016C456.136 18.8712 455.555 19.8554 454.654 19.8554C453.733 19.8554 453.152 18.8712 453.152 16.881Z" fill="#5A668A"/>
<path d="M464.006 22.2675C461.222 22.2675 459.579 20.3172 459.579 16.9222C459.579 13.6057 461.262 11.5164 464.166 11.5164C465.088 11.5164 465.788 11.6965 466.469 11.9589L466.028 14.4907C465.547 14.2694 464.988 14.0881 464.406 14.0881C463.064 14.0881 462.363 15.2536 462.363 16.881C462.363 18.6499 463.064 19.6946 464.447 19.6946C464.967 19.6946 465.507 19.5338 466.088 19.3125L466.529 21.7452C465.828 22.0462 464.907 22.2675 464.006 22.2675Z" fill="#5A668A"/>
<path d="M470.474 17.1229V22.1067H467.569V7.6183H470.474V16.1979L472.837 11.6977H476.021L473.197 16.6803L476.102 22.1067H472.877L470.474 17.1229Z" fill="#5A668A"/>
<path fill-rule="evenodd" clip-rule="evenodd" d="M479.846 11.4765C477.542 11.4765 475.719 13.365 475.719 16.9415C475.719 20.9206 477.742 22.2675 480.286 22.2675C481.408 22.2675 482.589 22.0051 483.591 21.5033L483.07 19.454C482.249 19.8348 481.348 20.0766 480.586 20.0766C479.305 20.0766 478.524 19.373 478.423 17.9462H483.932V17.002C483.932 13.3445 482.289 11.4765 479.846 11.4765ZM479.846 13.7072C480.726 13.7072 481.187 14.631 481.248 16.1979H478.423C478.483 14.6709 478.943 13.7072 479.846 13.7072Z" fill="#5A668A"/>
<path d="M485.491 18.9909V14.0881H484.37V11.6965H485.491V8.96521H488.376V11.6965H490.579V14.0881H488.376V18.5701C488.376 19.4334 488.837 19.7949 489.617 19.7949C489.958 19.7949 490.259 19.7345 490.579 19.6547V22.0257C490.138 22.1659 489.517 22.2469 488.797 22.2469C486.594 22.2469 485.491 21.3425 485.491 18.9909Z" fill="#5A668A"/>
<path d="M500.331 22.2675C496.686 22.2675 494.402 19.9364 494.402 15.0928C494.402 10.4318 496.746 7.87947 500.352 7.87947C501.553 7.87947 502.555 8.12008 503.336 8.42235L502.855 11.2758C502.234 11.0146 501.513 10.7728 500.652 10.7728C498.73 10.7728 497.587 12.2999 497.587 15.0529C497.587 17.8858 498.669 19.373 500.712 19.373C501.493 19.373 502.234 19.1723 502.875 18.8905L503.375 21.6642C502.515 22.0257 501.453 22.2675 500.331 22.2675Z" fill="#5A668A"/>
<path fill-rule="evenodd" clip-rule="evenodd" d="M503.935 18.951C503.935 21.2023 505.076 22.2469 506.698 22.2469C507.78 22.2469 508.521 21.8649 509.283 21.2023L509.643 22.1067H512.167L511.946 20.258V15.0529C511.946 12.6614 510.764 11.5369 508.141 11.5369C506.799 11.5369 505.577 11.8585 504.536 12.2805L505.076 14.4907C505.877 14.1485 506.779 13.9079 507.62 13.9079C508.701 13.9079 509.102 14.3903 509.102 15.2742V15.857C508.621 15.7566 508.061 15.6756 507.499 15.6756C506.198 15.6756 505.336 15.9767 504.756 16.58C504.215 17.1035 503.935 17.9462 503.935 18.951ZM509.102 17.4239V19.8965C508.721 20.1165 508.301 20.2773 507.899 20.2773C507.099 20.2773 506.639 19.8554 506.639 18.8107C506.639 18.2884 506.759 17.9269 506.979 17.6851C507.22 17.4638 507.56 17.3441 508.161 17.3441C508.501 17.3441 508.821 17.3635 509.102 17.4239Z" fill="#5A668A"/>
<path d="M516.772 22.2868C515.369 22.2868 514.067 21.9253 512.945 21.322L513.526 18.9715C514.629 19.5737 515.729 19.9364 516.731 19.9364C517.473 19.9364 517.873 19.6148 517.873 19.1723C517.873 18.7309 517.633 18.529 516.231 17.9668C514.288 17.1833 513.326 16.4397 513.326 14.6914C513.326 12.7617 514.648 11.5164 516.972 11.5164C518.153 11.5164 519.235 11.7981 520.216 12.2805L519.635 14.631C518.734 14.1691 517.813 13.8668 516.972 13.8668C516.351 13.8668 516.01 14.1292 516.01 14.5512C516.01 14.9526 516.231 15.1533 517.613 15.7167C519.797 16.58 520.557 17.384 520.557 19.032C520.557 21.2023 519.035 22.2868 516.772 22.2868Z" fill="#5A668A"/>
<path d="M522.218 18.9909V14.0881H521.096V11.6965H522.218V8.96521H525.102V11.6965H527.305V14.0881H525.102V18.5701C525.102 19.4334 525.563 19.7949 526.343 19.7949C526.684 19.7949 526.984 19.7345 527.305 19.6547V22.0257C526.865 22.1659 526.243 22.2469 525.522 22.2469C523.319 22.2469 522.218 21.3425 522.218 18.9909Z" fill="#5A668A"/>
<mask id="mask0_0_574" style="mask-type:luminance" maskUnits="userSpaceOnUse" x="527" y="11" width="9" height="12">
<path fill-rule="evenodd" clip-rule="evenodd" d="M527.939 11.2806H535.796V22.4235H527.939V11.2806Z" fill="white"/>
</mask>
<g mask="url(#mask0_0_574)">
<path d="M532.011 22.2868C530.608 22.2868 529.306 21.9253 528.184 21.322L528.765 18.9715C529.868 19.5736 530.968 19.9364 531.97 19.9364C532.711 19.9364 533.112 19.6148 533.112 19.1722C533.112 18.7309 532.871 18.529 531.47 17.9668C529.527 17.1833 528.565 16.4397 528.565 14.6914C528.565 12.7617 529.887 11.5164 532.211 11.5164C533.392 11.5164 534.474 11.7981 535.455 12.2805L534.874 14.6309C533.973 14.1691 533.052 13.8668 532.211 13.8668C531.59 13.8668 531.249 14.1292 531.249 14.5511C531.249 14.9526 531.47 15.1533 532.852 15.7167C535.034 16.58 535.795 17.384 535.795 19.032C535.795 21.2023 534.274 22.2868 532.011 22.2868Z" fill="#5A668A"/>
</g>
<defs>
<clipPath id="clip0_0_574">
<rect width="78" height="29" fill="white" transform="translate(136)"/>
</clipPath>
</defs>
</svg>
